M48
METRIC,TZ
FMAT,2
ICI,OFF
T01C.65
T03C1.05
T04C1.25
T07C2.55
%
T03
G05
X-5203Y4924
X-4949Y4924
X-4695Y4924
X-4441Y4924
X-4187Y4924
X-3933Y4924
X-3679Y4924
X-3425Y4924
X-5203Y4162
X-4949Y4162
X-4695Y4162
X-4441Y4162
X-4187Y4162
X-3933Y4162
X-3679Y4162
X-3425Y4162
X-5203Y3908
X-4949Y3908
X-4695Y3908
X-4441Y3908
X-4187Y3908
X-3933Y3908
X-3679Y3908
X-3425Y3908
X-5203Y3146
X-4949Y3146
X-4695Y3146
X-4441Y3146
X-4187Y3146
X-3933Y3146
X-3679Y3146
X-3425Y3146
X-5208Y5305
X-4954Y5305
X-5462Y5305
T04
X-1872Y3538
X-2126Y3538
X-2380Y3538
T03
X-3681Y2394
X-3681Y2140
X-3173Y2394
X-3173Y2140
X-2666Y2139
X-2666Y2393
X-2156Y2392
X-2156Y2138
X-1824Y1863
X-1818Y-46
X-1916Y-776
X-1662Y-776
T01
X-2836Y207
X-2449Y207
X-2681Y-1164
X-4130Y672
X-3905Y1550
X-1804Y4171
X-3287Y5188
X-3304Y5460
X-2726Y5568
X-2135Y5565
X-2420Y5235
X-3712Y4701
T03
X-1532Y5339
X-1532Y4323
X-4442Y2640
X-4950Y2640
X-5270Y1369
X-5016Y1369
X-4996Y784
X-5250Y784
X-5170Y254
X-5424Y254
X-4337Y1042
X-4591Y1042
T04
X-4141Y-179
X-4141Y-433
X-4141Y-687
X-3673Y-783
X-3165Y-783
X-3424Y-274
X-3424Y234
X-3533Y-1797
X-3787Y-1797
X-3279Y-1797
T03
X-5170Y-1095
X-5424Y-1095
X-3399Y1525
X-3399Y763
X-5457Y3908
X-5457Y3146
T07
X-4806Y-2067
X-2269Y-2067
M30
