*
%LPD*%
%LNtop*%
%FSLAX25Y25*%
%MOIN*%
%AD*%
%AD*%
%ADD10C,0.01*%
%ADD12C,0.122047244*%
%ADD13C,0.165354331*%
%ADD14C,0.080708661*%
%ADD17C,0.06496063*%
%ADD18R,0.06496063X0.06496063*%
%ADD20C,0.043307087*%
%ADD21C,0.023622047*%
%ADD22C,0.012795276*%
%ADD24R,0.102362205X0.393700787*%
%ADD25C,0.015748031*%
%ADD26R,0.059055118X0.039370079*%
%ADD27R,0.039370079X0.057086614*%
%ADD28R,0.047244094X0.059055118*%
%ADD29R,0.141732283X0.062992126*%
%ADD30R,0.094488189X0.07480315*%
%ADD31R,0.086614173X0.059055118*%
%ADD32R,0.098425197X0.062992126*%
%ADD33R,0.05511811X0.090551181*%
%ADD34R,0.118110236X0.062992126*%
%ADD35R,0.267716535X0.267716535*%
%ADD36R,0.196850394X0.078740157*%
%ADD37C,0.005*%
G4_NETID=0x54c0b2c0*
G54D17*
%SRX1Y1I0.0J0.0*%
G4_N42*
G1X-204848Y193846D3*
G4_N44*
G1X-194848Y193846D3*
G4_N45*
G1X-184848Y193846D3*
G4_N46*
G1X-174848Y193846D3*
G4_N47*
G1X-164848Y193846D3*
G4_N48*
G1X-154848Y193846D3*
G4_N49*
G1X-144848Y193846D3*
G4_N8*
G1X-134848Y193846D3*
G4_N35*
G54D18*
G1X-204848Y163846D3*
G4_N36*
G54D17*
G1X-194848Y163846D3*
G4_N37*
G1X-184848Y163846D3*
G4_N38*
G1X-174848Y163846D3*
G4_N39*
G1X-164848Y163846D3*
G4_N40*
G1X-154848Y163846D3*
G4_N41*
G1X-144848Y163846D3*
G4_N64*
G1X-134848Y163846D3*
G4_N36*
G1X-204848Y153846D3*
G4_N21*
G1X-194848Y153846D3*
G4_N22*
G1X-184848Y153846D3*
G4_N12*
G1X-174848Y153846D3*
G4_N38*
G1X-164848Y153846D3*
G4_N39*
G1X-154848Y153846D3*
G4_N40*
G1X-144848Y153846D3*
G4_N41*
G1X-134848Y153846D3*
G4_N13*
G1X-204848Y123846D3*
G4_N17*
G1X-194848Y123846D3*
G4_N25*
G1X-184848Y123846D3*
G4_N64*
G1X-174848Y123846D3*
G4_N26*
G1X-164848Y123846D3*
G4_N27*
G1X-154848Y123846D3*
G4_N19*
G1X-144848Y123846D3*
G4_N29*
G1X-134848Y123846D3*
G4_N43*
G1X-205040Y208859D3*
G4_N44*
G1X-195040Y208859D3*
G4_N42*
G54D18*
G1X-215040Y208859D3*
G4_N64*
G54D14*
G1X-73692Y139280D3*
G4_N18*
G1X-83692Y139280D3*
G4_N33*
G1X-93692Y139280D3*
G4_N28*
G54D17*
G1X-144908Y94272D3*
G4_N19*
G1X-144908Y84272D3*
G4_N30*
G1X-124906Y94272D3*
G4_N19*
G1X-124906Y84272D3*
G1X-104971Y84219D3*
G4_N31*
G1X-104971Y94219D3*
G4_N32*
G1X-84874Y94184D3*
G4_N19*
G1X-84874Y84184D3*
G4_N14*
G1X-71811Y73339D3*
G4_N11*
G1X-71568Y-1806D3*
G4_N2*
G1X-75450Y-30556D3*
G4_N64*
G1X-65450Y-30556D3*
G4_N14*
G54D20*
G1X-111663Y8155D3*
G4_N8*
G1X-96436Y8167D3*
G4_N3*
G1X-105540Y-45842D3*
G4_N13*
G1X-162617Y26445D3*
G4_N12*
G1X-153747Y61043D3*
G4_N64*
G1X-71042Y164215D3*
G4_N18*
G1X-129396Y204270D3*
G4_N9*
G1X-130065Y214947D3*
G4_N64*
G1X-107336Y219201D3*
G4_N50*
G1X-84047Y219104D3*
G4_N12*
G1X-95277Y206089D3*
G1X-146136Y185067D3*
G4_N14*
G54D17*
G1X-60311Y210206D3*
G1X-60311Y170206D3*
G4_N22*
G1X-174879Y103949D3*
G4_N21*
G1X-194879Y103949D3*
G4_N64*
G54D18*
G1X-207487Y53889D3*
G4_N17*
G54D17*
G1X-197487Y53889D3*
G4_N63*
G1X-196700Y30868D3*
G4_N64*
G1X-206700Y30868D3*
G1X-203543Y10002D3*
G4_N12*
G1X-213543Y10002D3*
G4_N9*
G1X-170744Y41025D3*
G4_N64*
G1X-180744Y41025D3*
G4_N12*
G54D14*
G1X-163044Y-7034D3*
G4_N64*
G1X-163044Y-17034D3*
G4_N9*
G1X-163044Y-27034D3*
G4_N10*
G1X-144594Y-30841D3*
G4_N64*
G1X-124594Y-30841D3*
G1X-134792Y-10768D3*
G1X-134792Y9232D3*
G4_N2*
G1X-139107Y-70765D3*
G4_N8*
G1X-149107Y-70765D3*
G4_N3*
G1X-129107Y-70765D3*
G4_N64*
G54D17*
G1X-203542Y-43118D3*
G4_N8*
G1X-213542Y-43118D3*
G4_N18*
G1X-133821Y60023D3*
G4_N9*
G1X-133821Y30023D3*
G4_N35*
G1X-214844Y153847D3*
G4_N24*
G54D18*
G1X-214844Y123847D3*
G4_N1*
G54D13*
G1X-189198Y-81372D3*
G4_N4*
G1X-89317Y-81371D3*
G4_N5*
G54D12*
G1X-209303Y-95600D3*
G4_N6*
G1X-139491Y-95617D3*
G4_N7*
G1X-69298Y-95600D3*
G4_N55*
G54D24*
G1X-208858Y244291D3*
G4_N56*
G1X-192520Y244291D3*
G4_N57*
G1X-177362Y244291D3*
G4_N58*
G1X-161024Y244291D3*
G4_N18*
G1X-145866Y244291D3*
G4_N9*
G1X-130118Y244291D3*
G4_N52*
G1X-114961Y244291D3*
G4_N64*
G1X-98622Y244291D3*
G1X-83465Y244291D3*
G4_N14*
G1X-68307Y244291D3*
G1X-93110Y244488D2*
G4_N64*
G54D21*
G1X-87992Y244488D1*
G1X-130118Y214961D2*
G4_N9*
G54D25*
G1X-130118Y226575D1*
G1X-129412Y204284D2*
G4_N18*
G54D22*
G1X-146254Y221126D1*
G1X-146254Y225132D1*
G1X-107359Y219203D2*
G4_N64*
G54D21*
G1X-102222Y219203D1*
G1X-98861Y222580D1*
G1X-98861Y226425D1*
G4_N51*
G54D26*
G1X-114961Y199803D3*
G4_N52*
G1X-114961Y212008D3*
G4_N51*
G1X-104921Y199803D3*
G4_N12*
G1X-104921Y212008D3*
G4_N53*
G1X-94882Y199802D3*
G4_N12*
G1X-94882Y212007D3*
G4_N53*
G1X-83859Y199801D3*
G4_N50*
G1X-83859Y212006D3*
G4_N25*
G1X-114961Y176575D3*
G4_N51*
G1X-114961Y188780D3*
G4_N64*
G1X-104921Y176575D3*
G4_N51*
G1X-104921Y188780D3*
G4_N24*
G1X-83661Y170866D3*
G4_N53*
G1X-83661Y183071D3*
G4_N33*
G1X-105709Y134055D3*
G4_N64*
G1X-105709Y146260D3*
G4_N32*
G1X-84449Y102165D3*
G4_N27*
G1X-84449Y114370D3*
G4_N31*
G1X-104528Y102165D3*
G4_N27*
G1X-104528Y114370D3*
G4_N30*
G1X-124606Y102165D3*
G4_N26*
G1X-124606Y114370D3*
G4_N28*
G1X-144685Y102165D3*
G4_N26*
G1X-144685Y114370D3*
G4_N33*
G54D27*
G1X-108661Y124213D3*
G4_N29*
G1X-120866Y124213D3*
G4_N33*
G54D28*
G1X-92520Y129134D3*
G4_N18*
G1X-83465Y129134D3*
G4_N64*
G1X-74409Y129134D3*
G54D27*
G1X-168024Y139764D3*
G4_N12*
G1X-180229Y139764D3*
G4_N18*
G54D29*
G1X-83661Y153740D3*
G4_N64*
G54D30*
G1X-94882Y172244D3*
G4_N53*
G1X-94882Y188780D3*
G4_N19*
G54D26*
G1X-74409Y83268D3*
G4_N32*
G1X-74409Y95472D3*
G4_N19*
G1X-94488Y83268D3*
G4_N31*
G1X-94488Y95472D3*
G4_N19*
G1X-114567Y83268D3*
G4_N30*
G1X-114567Y95472D3*
G4_N19*
G1X-134646Y83268D3*
G4_N28*
G1X-134646Y95472D3*
G4_N20*
G1X-83661Y55512D3*
G4_N14*
G1X-83661Y67717D3*
G4_N16*
G1X-83661Y38189D3*
G4_N20*
G1X-83661Y50394D3*
G4_N15*
G1X-83661Y20866D3*
G4_N16*
G1X-83661Y33071D3*
G4_N11*
G1X-83661Y3543D3*
G4_N15*
G1X-83661Y15748D3*
G4_N20*
G1X-75787Y55512D3*
G4_N14*
G1X-75787Y67717D3*
G4_N16*
G1X-75591Y38189D3*
G4_N20*
G1X-75787Y50394D3*
G4_N15*
G1X-75591Y20866D3*
G4_N16*
G1X-75591Y33071D3*
G4_N11*
G1X-75591Y3543D3*
G4_N15*
G1X-75591Y15748D3*
G4_N20*
G1X-67717Y55512D3*
G4_N14*
G1X-67717Y67717D3*
G4_N16*
G1X-67520Y38189D3*
G4_N20*
G1X-67717Y50394D3*
G4_N15*
G1X-67520Y20866D3*
G4_N16*
G1X-67520Y33071D3*
G4_N11*
G1X-67520Y3544D3*
G4_N15*
G1X-67520Y15748D3*
G4_N20*
G1X-59646Y55510D3*
G4_N14*
G1X-59646Y67715D3*
G4_N16*
G1X-59449Y38188D3*
G4_N20*
G1X-59646Y50392D3*
G4_N15*
G1X-59449Y20865D3*
G4_N16*
G1X-59449Y33069D3*
G4_N11*
G1X-59449Y3542D3*
G4_N15*
G1X-59449Y15747D3*
G4_N18*
G54D31*
G1X-95472Y54528D3*
G4_N9*
G1X-95472Y36811D3*
G1X-111417Y14961D3*
G4_N14*
G1X-111417Y-2756D3*
G4_N9*
G1X-96457Y14961D3*
G4_N8*
G1X-96457Y-2756D3*
G4_N11*
G1X-96457Y-20276D3*
G4_N2*
G1X-96457Y-37992D3*
G54D32*
G1X-79724Y-44291D3*
G4_N64*
G1X-65945Y-44291D3*
G4_N3*
G54D26*
G1X-111220Y-33661D3*
G4_N10*
G1X-111220Y-21457D3*
G4_N64*
G1X-116929Y-70472D3*
G4_N2*
G1X-116929Y-58268D3*
G4_N64*
G1X-161417Y-70472D3*
G4_N8*
G1X-161417Y-58268D3*
G4_N64*
G1X-153543Y-11417D3*
G4_N12*
G1X-153543Y787D3*
G4_N9*
G1X-153543Y-33858D3*
G4_N64*
G1X-153543Y-21654D3*
G4_N3*
G54D27*
G1X-110827Y-45669D3*
G4_N2*
G1X-123031Y-45669D3*
G4_N8*
G54D33*
G1X-152756Y-45669D3*
G4_N2*
G1X-135433Y-45669D3*
G4_N64*
G54D32*
G1X-186220Y-42913D3*
G4_N8*
G1X-172441Y-42913D3*
G4_N9*
G54D34*
G1X-179724Y-25787D3*
G4_N12*
G1X-179724Y-7677D3*
G4_N64*
G54D35*
G1X-206102Y-16732D3*
G54D32*
G1X-186614Y10433D3*
G4_N12*
G1X-172835Y10433D3*
G4_N64*
G1X-183661Y48425D3*
G4_N9*
G1X-169882Y48425D3*
G4_N13*
G54D27*
G1X-174606Y26772D3*
G4_N63*
G1X-186811Y26772D3*
G1X-195866Y38386D3*
G4_N64*
G1X-208071Y38386D3*
G1X-197047Y70472D3*
G4_N21*
G1X-209252Y70472D3*
G4_N22*
G1X-165748Y70472D3*
G4_N64*
G1X-177953Y70472D3*
G4_N12*
G1X-165748Y61614D3*
G4_N17*
G1X-177953Y61614D3*
G4_N22*
G54D36*
G1X-170276Y84252D3*
G4_N21*
G1X-204921Y84252D3*
G1X-115157Y212008D2*
G4_N52*
G54D22*
G1X-115157Y225591D1*
G1X-84055Y219094D2*
G4_N50*
G1X-84055Y212598D1*
G1X-95276Y210236D2*
G4_N12*
G54D21*
G1X-95276Y206102D1*
G1X-104724Y206102D1*
G1X-104724Y210827D1*
G1X-104724Y206102D2*
G1X-118504Y206102D1*
G1X-123031Y201575D1*
G1X-123031Y189567D1*
G1X-127559Y185039D1*
G1X-146063Y185039D1*
G1X-135236Y163780D2*
G4_N64*
G1X-70866Y163780D1*
G1X-70866Y216339D1*
G1X-80118Y225591D1*
G1X-70866Y163780D2*
G1X-70866Y147835D1*
G1X-73622Y145079D1*
G1X-73622Y139370D1*
G1X-105709Y146260D2*
G1X-105709Y151772D1*
G1X-104921Y152559D1*
G1X-104921Y176378D1*
G1X-94882Y168898D2*
G1X-94882Y164173D1*
G1X-124803Y162795D2*
G1X-124803Y143898D1*
G1X-128543Y140157D1*
G1X-167520Y140157D1*
G1X-162008Y139173D2*
G1X-162008Y134646D1*
G1X-164567Y132087D1*
G1X-172638Y132087D1*
G1X-175000Y129724D1*
G1X-175000Y118110D1*
G1X-182874Y110236D1*
G1X-183071Y110039D1*
G1X-183071Y95866D1*
G1X-188386Y90551D1*
G1X-188386Y70079D1*
G1X-195472Y70079D1*
G1X-188386Y70079D2*
G1X-179528Y70079D1*
G1X-188386Y70079D2*
G1X-188386Y65551D1*
G1X-190748Y63189D1*
G1X-204331Y63189D1*
G1X-207480Y60039D1*
G1X-208071Y59449D1*
G1X-208071Y37598D1*
G1X-208071Y38189D1*
G1X-212992Y38189D1*
G1X-212992Y30906D1*
G1X-206693Y30906D1*
G1X-206693Y22047D1*
G1X-203740Y19094D1*
G1X-203740Y10039D1*
G1X-187598Y10039D1*
G1X-195669Y10039D2*
G1X-195669Y-16535D1*
G1X-195669Y-43307D1*
G1X-203150Y-43307D1*
G1X-195669Y-43307D2*
G1X-188976Y-43307D1*
G1X-195669Y-43307D2*
G1X-195669Y-52165D1*
G1X-166142Y-81693D1*
G1X-161614Y-81693D1*
G1X-161614Y-71063D1*
G1X-161614Y-81693D2*
G1X-116339Y-81693D1*
G1X-116339Y-70669D1*
G1X-116339Y-81693D2*
G1X-112795Y-81693D1*
G1X-95276Y-64173D1*
G1X-56890Y-64173D1*
G1X-56890Y-44094D1*
G1X-61811Y-44094D1*
G1X-56890Y-44094D2*
G1X-56890Y-30512D1*
G1X-65551Y-30512D1*
G1X-75591Y-30512D2*
G4_N2*
G1X-80906Y-30512D1*
G1X-88189Y-37795D1*
G1X-88189Y-44094D1*
G1X-82874Y-44094D1*
G1X-88189Y-44094D2*
G1X-96063Y-44094D1*
G1X-96063Y-38583D1*
G1X-96063Y-44094D2*
G1X-96063Y-49606D1*
G1X-99606Y-53150D1*
G1X-116929Y-53150D1*
G1X-116929Y-57480D1*
G1X-116929Y-53150D2*
G1X-128150Y-53150D1*
G1X-128150Y-46063D1*
G1X-134055Y-46063D1*
G1X-127953Y-46063D2*
G1X-124016Y-46063D1*
G1X-128150Y-53150D2*
G1X-139173Y-64173D1*
G1X-139173Y-70866D1*
G1X-149213Y-70669D2*
G4_N8*
G1X-149213Y-60827D1*
G1X-156496Y-53543D1*
G1X-161417Y-53543D1*
G1X-161417Y-58071D1*
G1X-161417Y-53543D2*
G1X-161417Y-45669D1*
G1X-154528Y-45669D1*
G1X-161417Y-45669D2*
G1X-164370Y-42717D1*
G1X-168701Y-42717D1*
G1X-110630Y-45866D2*
G4_N3*
G1X-105512Y-45866D1*
G1X-105512Y-39370D1*
G1X-106496Y-38386D1*
G1X-111024Y-38386D1*
G1X-111024Y-35039D1*
G1X-153740Y-33661D2*
G4_N9*
G1X-153740Y-29921D1*
G1X-156693Y-26969D1*
G1X-170669Y-26969D1*
G1X-171654Y-25984D1*
G1X-176181Y-25984D1*
G1X-195669Y-16929D2*
G4_N64*
G1X-162992Y-16929D1*
G1X-153543Y-16929D1*
G1X-153543Y-12008D1*
G1X-153543Y-16929D2*
G1X-153543Y-21260D1*
G1X-153543Y-16929D2*
G1X-141142Y-16929D1*
G1X-134843Y-10630D1*
G1X-134843Y9252D1*
G1X-144685Y-31102D2*
G4_N10*
G54D22*
G1X-130118Y-16535D1*
G1X-112795Y-16535D1*
G1X-111417Y-17913D1*
G1X-111417Y-20472D1*
G1X-96260Y-20079D2*
G4_N11*
G54D21*
G1X-96260Y-14567D1*
G1X-94094Y-12402D1*
G1X-75197Y-12402D1*
G1X-71457Y-8661D1*
G1X-71457Y-1772D1*
G54D22*
G1X-71457Y-1378D1*
G1X-81496Y-1378D1*
G1X-83268Y394D1*
G1X-83268Y2756D1*
G1X-75000Y2953D2*
G1X-75000Y-1378D1*
G1X-67520Y2756D2*
G1X-67520Y-1378D1*
G1X-70866Y-1378D1*
G1X-61220Y-1378D1*
G1X-59055Y787D1*
G1X-59055Y3346D1*
G1X-83465Y15945D2*
G4_N15*
G1X-83465Y24016D1*
G1X-83465Y25000D1*
G1X-80906Y27559D1*
G1X-61220Y27559D1*
G1X-59055Y25394D1*
G1X-59055Y15354D1*
G1X-75394Y27362D2*
G1X-75394Y15748D1*
G1X-67126Y27362D2*
G1X-67126Y15945D1*
G1X-83465Y33268D2*
G4_N16*
G1X-83465Y41339D1*
G1X-83465Y42323D1*
G1X-80906Y44882D1*
G1X-61220Y44882D1*
G1X-59055Y42717D1*
G1X-59055Y32677D1*
G1X-75394Y44685D2*
G1X-75394Y33071D1*
G1X-67126Y44685D2*
G1X-67126Y33268D1*
G1X-83661Y50591D2*
G4_N20*
G1X-83661Y58661D1*
G1X-83661Y59646D1*
G1X-81102Y62205D1*
G1X-61417Y62205D1*
G1X-59252Y60039D1*
G1X-59252Y50000D1*
G1X-75591Y62008D2*
G1X-75591Y50394D1*
G1X-67323Y62008D2*
G1X-67323Y50591D1*
G1X-83071Y67520D2*
G4_N14*
G1X-83071Y70669D1*
G1X-80315Y73425D1*
G1X-72047Y73425D1*
G1X-75394Y73425D2*
G1X-75394Y68701D1*
G1X-72047Y73425D2*
G1X-67520Y73425D1*
G1X-67520Y68701D1*
G1X-67520Y73425D2*
G1X-59252Y73425D1*
G1X-59779Y68192D2*
G54D21*
G1X-59767Y170098D1*
G54D37*
G1X-59768Y210216D1*
G54D21*
G1X-59767Y215984D1*
G1X-67887Y224103D1*
G1X-67887Y226877D1*
G1X-83858Y182677D2*
G4_N53*
G54D22*
G1X-83858Y199803D1*
G1X-83858Y194685D2*
G1X-94882Y194685D1*
G1X-94882Y199016D1*
G1X-94882Y189173D1*
G1X-104921Y188780D2*
G4_N51*
G1X-104921Y199803D1*
G1X-105315Y194488D2*
G1X-114961Y194488D1*
G1X-114961Y188780D1*
G1X-114961Y194488D2*
G1X-114961Y199803D1*
G1X-83858Y170669D2*
G4_N24*
G1X-83858Y176772D1*
G1X-86811Y176772D1*
G1X-90748Y180709D1*
G1X-98819Y180709D1*
G1X-100984Y182874D1*
G1X-118701Y182874D1*
G1X-124803Y176772D1*
G1X-193504Y176772D1*
G1X-199803Y170472D1*
G1X-199803Y146850D1*
G1X-214961Y131693D1*
G1X-214961Y123819D1*
G1X-184843Y123819D2*
G4_N25*
G1X-184843Y128937D1*
G1X-189961Y154528D2*
G1X-189961Y134055D1*
G1X-184843Y128937D1*
G1X-184843Y128740D1*
G1X-189961Y154528D2*
G1X-189961Y169094D1*
G1X-187205Y171850D1*
G1X-116732Y171850D1*
G1X-114764Y173819D1*
G1X-114764Y176378D1*
G1X-83661Y129921D2*
G4_N18*
G1X-83661Y151969D1*
G1X-93701Y139173D2*
G4_N33*
G1X-93701Y134252D1*
G1X-92913Y133465D1*
G1X-92913Y124803D1*
G1X-93701Y124016D1*
G1X-108268Y124016D1*
G1X-103740Y124213D2*
G1X-103740Y127165D1*
G1X-105709Y129134D1*
G1X-105709Y132874D1*
G1X-73622Y139370D2*
G4_N64*
G54D21*
G1X-73622Y134449D1*
G1X-74409Y133661D1*
G1X-74409Y129528D1*
G1X-104528Y114173D2*
G4_N27*
G54D22*
G1X-104528Y108071D1*
G1X-86614Y108071D1*
G1X-84646Y110039D1*
G1X-84646Y113583D1*
G1X-104528Y108071D2*
G1X-110630Y108071D1*
G1X-114764Y112205D1*
G1X-114764Y130906D1*
G1X-116929Y133071D1*
G1X-152165Y133071D1*
G1X-154921Y130315D1*
G1X-154921Y123819D1*
G1X-144882Y113780D2*
G4_N26*
G1X-144882Y108268D1*
G1X-126378Y108268D1*
G1X-124606Y110039D1*
G1X-124606Y113189D1*
G1X-144882Y108268D2*
G1X-158268Y108268D1*
G1X-164764Y114764D1*
G1X-164764Y124016D1*
G1X-134646Y124016D2*
G4_N29*
G1X-120669Y124016D1*
G1X-144882Y94291D2*
G4_N28*
G1X-144882Y102362D1*
G1X-144882Y98228D2*
G1X-140354Y98228D1*
G1X-138583Y100000D1*
G1X-135630Y100000D1*
G1X-135039Y99409D1*
G1X-135039Y95866D1*
G1X-124803Y94291D2*
G4_N30*
G1X-124803Y102362D1*
G1X-124803Y98228D2*
G1X-120276Y98228D1*
G1X-118504Y100000D1*
G1X-115551Y100000D1*
G1X-114961Y99409D1*
G1X-114961Y95866D1*
G1X-104724Y94291D2*
G4_N31*
G1X-104724Y102362D1*
G1X-104724Y98228D2*
G1X-100197Y98228D1*
G1X-98425Y100000D1*
G1X-95472Y100000D1*
G1X-94882Y99409D1*
G1X-94882Y95866D1*
G1X-84646Y94291D2*
G4_N32*
G1X-84646Y102362D1*
G1X-84646Y98228D2*
G1X-80118Y98228D1*
G1X-78346Y100000D1*
G1X-75394Y100000D1*
G1X-74803Y99409D1*
G1X-74803Y95866D1*
G1X-74213Y83071D2*
G4_N19*
G1X-74213Y86811D1*
G1X-75591Y88189D1*
G1X-82677Y88189D1*
G1X-84843Y86024D1*
G1X-84843Y84252D1*
G1X-84843Y83071D1*
G1X-84843Y82283D1*
G1X-88780Y78346D1*
G1X-94291Y78346D1*
G1X-94291Y82480D1*
G1X-94291Y78346D2*
G1X-104724Y78346D1*
G1X-104724Y84055D1*
G1X-104724Y78346D2*
G1X-114764Y78346D1*
G1X-114764Y83268D1*
G1X-114764Y78346D2*
G1X-124803Y78346D1*
G1X-124803Y84055D1*
G1X-124803Y78346D2*
G1X-135039Y78346D1*
G1X-135039Y82087D1*
G1X-135039Y78346D2*
G1X-142913Y78346D1*
G1X-144882Y80315D1*
G1X-144882Y84646D1*
G1X-153740Y61220D2*
G4_N12*
G1X-164764Y61220D1*
G1X-133858Y60039D2*
G4_N18*
G1X-108661Y60039D1*
G1X-107480Y61220D1*
G1X-97835Y61220D1*
G1X-97441Y61220D1*
G1X-95472Y59252D1*
G1X-95472Y55906D1*
G1X-197638Y53937D2*
G4_N17*
G1X-191339Y53937D1*
G1X-184252Y61024D1*
G1X-178150Y61024D1*
G1X-165551Y70079D2*
G4_N22*
G1X-162008Y70079D1*
G1X-156890Y75197D1*
G1X-156890Y84055D1*
G1X-161024Y84055D1*
G1X-156890Y84055D2*
G1X-156890Y87795D1*
G1X-166929Y97835D1*
G1X-167323Y98228D1*
G1X-169094Y98228D1*
G1X-174803Y103937D1*
G1X-195079Y103937D2*
G4_N21*
G1X-203346Y103937D1*
G1X-219685Y87598D1*
G1X-219685Y83858D1*
G1X-214173Y83858D1*
G1X-219685Y83858D2*
G1X-219685Y72244D1*
G1X-217520Y70079D1*
G1X-210630Y70079D1*
G1X-207087Y45079D2*
G4_N64*
G54D21*
G1X-192323Y45079D1*
G1X-192323Y48425D1*
G1X-188386Y48425D1*
G1X-192323Y45079D2*
G1X-192323Y44094D1*
G1X-189370Y41142D1*
G1X-180709Y41142D1*
G1X-196654Y30906D2*
G4_N63*
G54D22*
G1X-191535Y30906D1*
G1X-191535Y26181D1*
G1X-187402Y26181D1*
G1X-191535Y30906D2*
G1X-191535Y37205D1*
G1X-192520Y38189D1*
G1X-194291Y38189D1*
G1X-164173Y26378D2*
G4_N13*
G1X-172835Y26378D1*
G1X-175591Y-7283D2*
G4_N12*
G54D21*
G1X-163189Y-7283D1*
G1X-163189Y10236D1*
G1X-168307Y10236D1*
G1X-163189Y10236D2*
G1X-158661Y10236D1*
G1X-153740Y5315D1*
G1X-153740Y984D1*
G1X-111614Y8071D2*
G4_N14*
G1X-111614Y-1575D1*
G1X-96457Y8071D2*
G4_N8*
G1X-96457Y-2953D1*
G1X-111614Y15157D2*
G4_N9*
G1X-111614Y28150D1*
G1X-124606Y28150D1*
G1X-126772Y30315D1*
G1X-140354Y30315D1*
G1X-151378Y41339D1*
G1X-171063Y41339D1*
G1X-160827Y41535D2*
G1X-160827Y48425D1*
G1X-166142Y48425D1*
G1X-111614Y28150D2*
G1X-95669Y28150D1*
G1X-95669Y30906D1*
G1X-94685Y31890D1*
G1X-94685Y35630D1*
G1X-95669Y28150D2*
G1X-95669Y24606D1*
G1X-95669Y24409D1*
G1X-96654Y23425D1*
G1X-96654Y15748D1*
G1X-180315Y140157D2*
G4_N12*
G1X-185236Y140157D1*
G1X-185236Y146457D1*
G1X-177756Y146457D1*
G1X-175197Y149016D1*
G1X-175197Y153543D1*
G1X-75591Y108219D2*
G4_N-1*
G54D10*
G1X-74852Y108957D1*
G1X-74114Y108957D1*
G1X-73376Y108219D1*
G1X-72638Y108957D1*
G1X-71900Y108957D1*
G1X-71161Y108219D1*
G1X-75591Y105266D2*
G1X-71161Y105266D1*
G1X-73376Y108219D2*
G1X-73376Y105266D1*
G1X-75591Y105266D2*
G1X-75591Y108219D1*
G1X-71161Y108219D2*
G1X-71161Y105266D1*
G1X-75591Y112648D2*
G1X-71161Y112648D1*
G1X-71161Y111909D2*
G1X-71161Y113386D1*
G1X-75591Y112648D2*
G1X-74852Y111909D1*
G1X-75591Y118553D2*
G1X-71161Y118553D1*
G1X-71161Y117815D2*
G1X-71161Y119291D1*
G1X-75591Y118553D2*
G1X-74852Y117815D1*
G1X-67717Y91683D2*
G1X-66978Y92421D1*
G1X-66240Y92421D1*
G1X-65502Y91683D1*
G1X-64764Y92421D1*
G1X-64026Y92421D1*
G1X-63287Y91683D1*
G1X-67717Y88730D2*
G1X-63287Y88730D1*
G1X-65502Y91683D2*
G1X-65502Y88730D1*
G1X-67717Y88730D2*
G1X-67717Y91683D1*
G1X-63287Y91683D2*
G1X-63287Y88730D1*
G1X-67717Y100541D2*
G1X-64026Y100541D1*
G1X-63287Y101280D1*
G1X-63287Y103494D1*
G1X-64026Y104232D1*
G1X-67717Y104232D1*
G1X-63287Y110138D2*
G1X-67717Y110138D1*
G1X-67717Y105709D2*
G1X-63287Y105709D1*
G1X-67717Y105709D2*
G1X-64764Y107923D1*
G1X-67717Y110138D1*
G1X-66978Y111614D2*
G1X-67717Y112352D1*
G1X-67717Y114567D1*
G1X-66978Y115305D1*
G1X-66240Y115305D1*
G1X-65502Y114567D1*
G1X-64764Y112352D1*
G1X-64026Y111614D1*
G1X-63287Y111614D1*
G1X-63287Y115305D1*
G1X-67717Y118258D2*
G1X-67717Y121211D1*
G1X-66978Y121949D1*
G1X-64026Y121949D1*
G1X-63287Y121211D1*
G1X-63287Y118258D1*
G1X-64026Y117520D1*
G1X-66978Y117520D1*
G1X-67717Y118258D1*
G1X-67717Y121211D2*
G1X-63287Y118258D1*
G1X-67717Y124163D2*
G1X-67717Y127116D1*
G1X-66978Y127854D1*
G1X-64026Y127854D1*
G1X-63287Y127116D1*
G1X-63287Y124163D1*
G1X-64026Y123425D1*
G1X-66978Y123425D1*
G1X-67717Y124163D1*
G1X-67717Y127116D2*
G1X-63287Y124163D1*
G1X-67717Y129331D2*
G1X-67717Y133022D1*
G1X-66240Y133022D1*
G1X-64764Y131545D1*
G1X-63287Y131545D1*
G1X-142827Y74576D2*
G1X-138398Y74576D1*
G1X-138398Y73837D2*
G1X-138398Y75314D1*
G1X-142827Y74576D2*
G1X-142089Y73837D1*
G1X-122044Y71904D2*
G1X-122782Y72642D1*
G1X-122782Y74857D1*
G1X-122044Y75595D1*
G1X-121306Y75595D1*
G1X-120568Y74857D1*
G1X-119830Y72642D1*
G1X-119091Y71904D1*
G1X-118353Y71904D1*
G1X-118353Y75595D1*
G1X-100914Y72017D2*
G1X-101652Y72755D1*
G1X-101652Y74970D1*
G1X-100914Y75708D1*
G1X-100176Y75708D1*
G1X-99438Y74970D1*
G1X-99438Y73493D2*
G1X-99438Y74970D1*
G1X-98699Y75708D1*
G1X-97961Y75708D1*
G1X-97223Y74970D1*
G1X-97223Y72755D1*
G1X-97961Y72017D1*
G1X-80514Y79492D2*
G4_N23*
G1X-80514Y75815D1*
G1X-83599Y77624D1*
G1X-81173Y77852D2*
G1X-78848Y77852D1*
G1X-63279Y98201D2*
G4_N34*
G1X-66663Y98201D1*
G1X-67543Y97321D1*
G1X-67543Y95206D1*
G1X-66917Y94581D1*
G1X-63279Y94581D1*
G1X-65292Y94648D2*
G1X-65292Y97677D1*
G1X-219517Y49175D2*
G4_N-1*
G1X-215826Y49175D1*
G1X-215088Y48437D1*
G1X-215088Y46223D1*
G1X-215826Y45484D1*
G1X-216564Y45484D1*
G1X-215088Y55819D2*
G1X-219517Y55819D1*
G1X-219517Y51390D2*
G1X-215088Y51390D1*
G1X-219517Y51390D2*
G1X-216564Y53605D1*
G1X-219517Y55819D1*
G1X-219517Y60986D2*
G1X-218779Y61725D1*
G1X-218041Y61725D1*
G1X-217302Y60986D1*
G1X-219517Y58034D2*
G1X-215088Y58034D1*
G1X-219517Y60986D2*
G1X-219517Y58034D1*
G1X-217302Y60986D2*
G1X-217302Y58034D1*
G1X-213342Y220373D2*
G1X-217771Y220373D1*
G1X-217771Y215944D2*
G1X-213342Y215944D1*
G1X-217771Y215944D2*
G1X-214818Y218159D1*
G1X-217771Y220373D1*
G1X-196890Y219669D2*
G1X-197628Y218931D1*
G1X-197628Y216717D1*
G1X-196890Y215978D1*
G1X-196152Y215978D1*
G1X-194675Y219669D2*
G1X-193937Y219669D1*
G1X-193199Y218931D1*
G1X-193199Y216717D1*
G1X-193937Y215978D1*
G1X-196152Y215978D2*
G1X-195413Y216717D1*
G1X-195413Y218931D1*
G1X-194675Y219669D1*
G1X-94751Y243921D2*
G4_N64*
G54D22*
G1X-92797Y243921D1*
G1X-92805Y245035D2*
G1X-94662Y245035D1*
M2*
